<svg fill="#8ace00" width="24px" height="24px" viewBox="0 0 24.00 24.00" id="apple-fruit" data-name="Flat Line" xmlns="http://www.w3.org/2000/svg" class="icon flat-line"><g id="SVGRepo_bgCarrier" stroke-width="0"></g><g id="SVGRepo_tracerCarrier" stroke-linecap="round" stroke-linejoin="round"></g><g id="SVGRepo_iconCarrier"><path id="secondary" d="M19.92,12.38c-.5,4.55-2.6,8.62-4.73,8.62-1.39,0-1.71-1-3.19-1s-1.81,1-3.19,1c-2.13,0-4.23-4.07-4.73-8.62-.35-3.23.46-5.24,2.42-6.06C9,5.27,10.41,7,12,7s3-1.73,5.49-.68C19.45,7.14,20.28,9.15,19.92,12.38Z" style="fill: #8ace00; stroke-width:1.32;"></path><path id="primary" d="M12,7a5.11,5.11,0,0,1,2-4" style="fill: none; stroke: #000000; stroke-linecap: round; stroke-linejoin: round; stroke-width:1.32;"></path><path id="primary-2" data-name="primary" d="M19.92,12.38c-.5,4.55-2.6,8.62-4.73,8.62-1.39,0-1.71-1-3.19-1s-1.81,1-3.19,1c-2.13,0-4.23-4.07-4.73-8.62-.35-3.23.46-5.24,2.42-6.06C9,5.27,10.41,7,12,7s3-1.73,5.49-.68C19.45,7.14,20.28,9.15,19.92,12.38Z" style="fill: none; stroke: #000000; stroke-linecap: round; stroke-linejoin: round; stroke-width:1.32;"></path></g></svg>